<svg version="1.1" xmlns="http://www.w3.org/2000/svg" viewBox="-313.2 -1298.2 11021.087277912893 3756.6"><desc>Created with Snap</desc><defs></defs><g><g transform="matrix(59.815,0,0,59.815,4900.4614,-2433.0791)"><path d="M54.042,24.109l37.912,21.888v8.756  L54.042,76.641v-8.755l30.331-17.511l-30.331-17.51V24.109z" fill="#c7d3d4" style=""></path><path d="M54.042,41.62l15.166,8.755l-15.166,8.755  V41.62z" fill="#c7d3d4" style=""></path><polygon points="46.459,24.109 8.547,45.997 8.547,54.752 38.876,37.243 38.876,72.263 46.459,76.641 " fill="#c7d3d4" style=""></polygon><polygon points="31.294,50.375 16.129,59.13 31.294,67.885 " fill="#c7d3d4" style=""></polygon><desc>Created with Snap</desc><defs></defs></g><g><g transform="matrix(0.5,0,0,-0.5,0,0)"><path d="M1567 1933Q1594 1982 1626 1982Q1659 1982 1659 1952Q1659 1949 1659 1946Q1598 929 1591 76Q1604 50 1590 24Q1566 -25 1534 -25Q1495 -25 1492 44Q1491 64 1491 171Q1491 278 1496 475Q1502 672 1509 870Q1517 1069 1525 1266Q1533 1464 1538 1657Q1439 1436 1194 970Q950 505 866 336Q843 293 814 293Q785 293 774 322Q722 562 616 1037Q510 1512 471 1706Q404 1366 259 768Q114 170 80 18Q60 -23 23 -23Q-8 -23 -12 18Q53 375 209 1022Q365 1670 424 1931Q430 1951 447 1965Q465 1980 480 1980Q509 1980 518 1946Q603 1578 689 1161Q776 744 831 510Q968 746 1085 979Q1202 1212 1315 1439Q1429 1666 1567 1933ZM2423 894Q2446 985 2463 1009Q2480 1034 2513 1034Q2546 1034 2546 1010Q2546 986 2456 591Q2367 197 2335 51Q2375 86 2406 117Q2437 148 2461 169Q2485 190 2503 190Q2541 190 2541 156Q2541 135 2525 115Q2413 15 2312 -61Q2226 -534 2148 -684Q2127 -725 2093 -762Q2012 -854 1908 -854Q1804 -854 1747 -778Q1690 -701 1690 -629Q1690 -556 1708 -503Q1726 -450 1757 -406Q1788 -362 1830 -325Q1872 -287 1920 -252Q1968 -217 2019 -183Q2071 -149 2122 -111L2222 -35Q2233 9 2298 219Q2363 429 2374 469Q2288 218 2163 78Q2079 -16 2003 -16Q1927 -16 1878 45Q1829 106 1829 217Q1829 389 1927 759Q1976 943 1976 959Q1972 988 1980 999Q2009 1038 2048 1038Q2087 1038 2087 998Q2087 961 2011 653Q1935 345 1935 240Q1935 136 1960 109Q1986 82 2023 82Q2102 82 2189 213Q2276 344 2338 574Q2401 804 2423 894ZM2171 -287L2197 -154Q2115 -217 2041 -267Q1968 -317 1913 -367Q1794 -475 1794 -608Q1794 -692 1849 -738Q1872 -756 1910 -756Q1949 -756 1981 -730Q2014 -704 2040 -663Q2066 -622 2086 -570Q2107 -518 2123 -466Q2139 -414 2150 -367Q2162 -319 2171 -287ZM3672 1094Q3702 1090 3725 1090L3764 1090Q3779 1090 3795 1092L3801 1143Q3832 1404 3897 1706Q3551 1614 3490 1544Q3470 1532 3455 1532Q3418 1532 3418 1569Q3418 1668 3838 1782Q3888 1795 3920 1804Q3939 1884 3955 1939Q3976 1970 4006 1970Q4043 1970 4043 1935Q4043 1921 4034 1907L4018 1831Q4495 1951 5116 1960Q5151 1950 5151 1925Q5151 1907 5136 1889Q5121 1872 5101 1866Q4480 1857 3998 1733Q3969 1589 3940 1446Q3911 1304 3895 1157L3889 1102L4002 1114Q4158 1128 4307 1131Q4457 1135 4512 1137Q4542 1125 4542 1104Q4542 1083 4525 1065Q4509 1048 4487 1044Q4407 1040 4275 1037Q4143 1035 3993 1024L3877 1010Q3829 647 3731 188Q3711 97 3688 -12Q3669 -53 3631 -53Q3600 -53 3596 -12Q3710 529 3738 715Q3767 902 3780 999Q3763 997 3747 997L3713 997Q3669 997 3638 1004Q3608 1011 3608 1036Q3608 1055 3627 1073Q3646 1092 3672 1094ZM4821 1376Q4880 1376 4880 1317Q4880 1231 4820 1220Q4803 1217 4783 1217Q4763 1217 4743 1237Q4723 1257 4723 1288Q4723 1320 4754 1348Q4785 1376 4821 1376ZM4680 909L4680 929Q4680 943 4665 997Q4665 1022 4682 1042Q4699 1063 4723 1063Q4748 1063 4764 1032Q4780 1001 4780 964Q4780 927 4686 522Q4592 117 4592 95Q4592 74 4612 74Q4625 74 4649 99Q4673 125 4690 125Q4723 125 4723 83Q4723 42 4661 11Q4599 -20 4571 -20Q4501 -20 4501 92Q4501 115 4510 143Q4520 172 4530 222Q4541 273 4560 360Q4580 447 4600 540Q4621 633 4650 765Q4680 898 4680 909ZM5574 810Q5574 909 5520 909Q5448 909 5245 496Q5153 309 5116 213Q5080 118 5062 79Q5044 40 5026 20Q5009 0 4987 0Q4966 0 4962 10Q4958 21 4958 48Q4958 76 5038 520Q5119 965 5131 988Q5144 1011 5154 1017Q5164 1024 5190 1024Q5216 1024 5230 1004Q5245 984 5245 968Q5245 953 5241 938Q5234 911 5220 871Q5172 734 5128 483L5107 362Q5130 410 5159 477Q5188 545 5245 671Q5302 797 5372 896Q5462 1026 5540 1026Q5677 1026 5677 805Q5677 722 5653 598Q5630 474 5601 327Q5573 180 5570 84L5558 29Q5558 7 5551 -3Q5545 -12 5512 -12Q5480 -12 5465 0Q5451 12 5456 43L5556 641Q5574 752 5574 810ZM5939 0Q5822 0 5822 147Q5822 294 5931 507Q6041 721 6189 876Q6337 1032 6430 1032Q6524 1032 6537 950Q6541 925 6543 897Q6552 903 6565 903Q6612 903 6612 858L6612 850Q6612 847 6587 760Q6562 673 6530 470Q6498 267 6498 123Q6507 117 6519 109Q6531 102 6549 86Q6567 71 6567 50Q6567 29 6554 12Q6541 -4 6517 -4Q6468 -4 6428 46Q6389 96 6389 154Q6389 279 6457 584Q6372 406 6237 241Q6102 76 6050 38Q5999 0 5939 0ZM5924 143Q5924 106 5955 106Q5977 106 5992 121Q6199 299 6363 614Q6456 794 6461 821Q6467 848 6467 867Q6467 886 6457 903Q6447 920 6429 920Q6411 920 6376 901Q6299 859 6186 722Q6074 585 5999 424Q5924 263 5924 143ZM7407 810Q7407 909 7353 909Q7281 909 7078 496Q6986 309 6949 213Q6913 118 6895 79Q6877 40 6859 20Q6842 0 6820 0Q6799 0 6795 10Q6791 21 6791 48Q6791 76 6871 520Q6952 965 6964 988Q6977 1011 6987 1017Q6997 1024 7023 1024Q7049 1024 7063 1004Q7078 984 7078 968Q7078 953 7074 938Q7067 911 7053 871Q7005 734 6961 483L6940 362Q6963 410 6992 477Q7021 545 7078 671Q7135 797 7205 896Q7295 1026 7373 1026Q7510 1026 7510 805Q7510 722 7486 598Q7463 474 7434 327Q7406 180 7403 84L7391 29Q7391 7 7384 -3Q7378 -12 7345 -12Q7313 -12 7298 0Q7284 12 7289 43L7389 641Q7407 752 7407 810ZM7784 258Q7784 76 7917 76Q7983 76 8041 140Q8063 165 8082 185Q8101 205 8121 205Q8161 205 8161 170Q8161 106 8079 40Q7997 -25 7893 -25Q7790 -25 7736 51Q7683 128 7683 224Q7683 403 7749 595Q7816 787 7924 917Q8033 1047 8154 1047Q8242 1047 8270 984Q8277 967 8286 940Q8296 914 8308 907Q8316 894 8316 875Q8316 857 8299 841Q8282 825 8261 825Q8218 825 8206 888Q8194 952 8139 952Q8062 952 7979 835Q7897 718 7840 551Q7784 384 7784 258ZM8699 1376Q8758 1376 8758 1317Q8758 1231 8698 1220Q8681 1217 8661 1217Q8641 1217 8621 1237Q8601 1257 8601 1288Q8601 1320 8632 1348Q8663 1376 8699 1376ZM8558 909L8558 929Q8558 943 8543 997Q8543 1022 8560 1042Q8577 1063 8601 1063Q8626 1063 8642 1032Q8658 1001 8658 964Q8658 927 8564 522Q8470 117 8470 95Q8470 74 8490 74Q8503 74 8527 99Q8551 125 8568 125Q8601 125 8601 83Q8601 42 8539 11Q8477 -20 8449 -20Q8379 -20 8379 92Q8379 115 8388 143Q8398 172 8408 222Q8419 273 8438 360Q8458 447 8478 540Q8499 633 8528 765Q8558 898 8558 909ZM8904 0Q8787 0 8787 147Q8787 294 8896 507Q9006 721 9154 876Q9302 1032 9395 1032Q9489 1032 9502 950Q9506 925 9508 897Q9517 903 9530 903Q9577 903 9577 858L9577 850Q9577 847 9552 760Q9527 673 9495 470Q9463 267 9463 123Q9472 117 9484 109Q9496 102 9514 86Q9532 71 9532 50Q9532 29 9519 12Q9506 -4 9482 -4Q9433 -4 9393 46Q9354 96 9354 154Q9354 279 9422 584Q9337 406 9202 241Q9067 76 9015 38Q8964 0 8904 0ZM8889 143Q8889 106 8920 106Q8942 106 8957 121Q9164 299 9328 614Q9421 794 9426 821Q9432 848 9432 867Q9432 886 9422 903Q9412 920 9394 920Q9376 920 9341 901Q9264 859 9151 722Q9039 585 8964 424Q8889 263 8889 143ZM10065 125Q10110 125 10110 79Q10110 34 10050 9Q9991 -16 9914 -16Q9838 -16 9802 25Q9766 66 9766 125Q9766 184 9772 233Q9779 283 9795 371Q9811 459 9832 569Q9853 679 9879 805Q9905 931 9932 1062Q9959 1193 9986 1322Q10014 1451 10039 1567Q10064 1684 10085 1781Q10106 1879 10120 1946Q10129 1978 10166 1978Q10209 1978 10209 1931L10209 1905Q10170 1718 10132 1541Q10094 1364 10002 927Q9911 490 9884 336Q9858 182 9858 151Q9858 120 9877 96Q9896 72 9921 72Q9947 72 9968 80Q9989 89 10009 98Q10029 108 10045 116Q10061 125 10065 125Z" fill="#603f83" style=""></path></g></g><g transform="matrix(1,0,0,1,2980.5,1724.2)"><g transform="matrix(0.5,0,0,-0.5,0,0)"><path d="M43 -72Q43 -52 47 -14Q18 -8 -12 -3Q-142 18 -146 58Q-147 63 -147 74Q-147 86 -136 99Q-124 113 -114 113Q-103 113 -92 110Q-78 105 -43 88Q-7 72 59 72Q287 1194 502 1835Q377 1793 276 1729Q263 1724 254 1724Q219 1724 219 1761Q219 1791 244 1808Q393 1900 541 1942Q560 1968 580 1968Q601 1968 608 1958Q704 1980 823 1980Q943 1980 1046 1929Q1337 1784 1337 1286Q1337 711 1050 360Q851 118 524 26Q358 -20 156 -20L143 -20Q136 -87 111 -105Q100 -113 82 -113Q43 -113 43 -72ZM1241 1262Q1241 1882 774 1882Q678 1882 600 1862Q427 1320 271 604Q217 357 158 68Q516 68 760 229Q1004 391 1122 662Q1241 933 1241 1262ZM1753 1376Q1812 1376 1812 1317Q1812 1231 1752 1220Q1735 1217 1715 1217Q1695 1217 1675 1237Q1655 1257 1655 1288Q1655 1320 1686 1348Q1717 1376 1753 1376ZM1612 909L1612 929Q1612 943 1597 997Q1597 1022 1614 1042Q1631 1063 1655 1063Q1680 1063 1696 1032Q1712 1001 1712 964Q1712 927 1618 522Q1524 117 1524 95Q1524 74 1544 74Q1557 74 1581 99Q1605 125 1622 125Q1655 125 1655 83Q1655 42 1593 11Q1531 -20 1503 -20Q1433 -20 1433 92Q1433 115 1442 143Q1452 172 1462 222Q1473 273 1492 360Q1512 447 1532 540Q1553 633 1582 765Q1612 898 1612 909ZM1958 0Q1841 0 1841 147Q1841 294 1950 507Q2060 721 2208 876Q2356 1032 2449 1032Q2543 1032 2556 950Q2560 925 2562 897Q2571 903 2584 903Q2631 903 2631 858L2631 850Q2631 847 2606 760Q2581 673 2549 470Q2517 267 2517 123Q2526 117 2538 109Q2550 102 2568 86Q2586 71 2586 50Q2586 29 2573 12Q2560 -4 2536 -4Q2487 -4 2447 46Q2408 96 2408 154Q2408 279 2476 584Q2391 406 2256 241Q2121 76 2069 38Q2018 0 1958 0ZM1943 143Q1943 106 1974 106Q1996 106 2011 121Q2218 299 2382 614Q2475 794 2480 821Q2486 848 2486 867Q2486 886 2476 903Q2466 920 2448 920Q2430 920 2395 901Q2318 859 2205 722Q2093 585 2018 424Q1943 263 1943 143ZM2810 4L2856 248Q2892 435 2905 513Q2918 592 2934 686Q2951 781 3002 958Q3000 963 3000 967L3000 977Q3000 1025 3037 1046Q3048 1053 3060 1053Q3103 1053 3103 991Q3103 955 3074 861Q3045 768 3029 688Q3043 711 3063 746Q3084 781 3128 848Q3173 915 3240 975Q3308 1036 3378 1036Q3449 1036 3486 998Q3500 985 3500 965Q3500 945 3482 929Q3464 913 3445 913Q3426 913 3408 923Q3390 934 3368 934Q3346 934 3298 898Q3107 759 2983 347Q2950 237 2943 195Q2936 154 2931 128Q2901 -33 2839 -33Q2810 -33 2810 4ZM4125 894Q4148 985 4165 1009Q4182 1034 4215 1034Q4248 1034 4248 1010Q4248 986 4158 591Q4069 197 4037 51Q4077 86 4108 117Q4139 148 4163 169Q4187 190 4205 190Q4243 190 4243 156Q4243 135 4227 115Q4115 15 4014 -61Q3928 -534 3850 -684Q3829 -725 3795 -762Q3714 -854 3610 -854Q3506 -854 3449 -778Q3392 -701 3392 -629Q3392 -556 3410 -503Q3428 -450 3459 -406Q3490 -362 3532 -325Q3574 -287 3622 -252Q3670 -217 3721 -183Q3773 -149 3824 -111L3924 -35Q3935 9 4000 219Q4065 429 4076 469Q3990 218 3865 78Q3781 -16 3705 -16Q3629 -16 3580 45Q3531 106 3531 217Q3531 389 3629 759Q3678 943 3678 959Q3674 988 3682 999Q3711 1038 3750 1038Q3789 1038 3789 998Q3789 961 3713 653Q3637 345 3637 240Q3637 136 3662 109Q3688 82 3725 82Q3804 82 3891 213Q3978 344 4040 574Q4103 804 4125 894ZM3873 -287L3899 -154Q3817 -217 3743 -267Q3670 -317 3615 -367Q3496 -475 3496 -608Q3496 -692 3551 -738Q3574 -756 3612 -756Q3651 -756 3683 -730Q3716 -704 3742 -663Q3768 -622 3788 -570Q3809 -518 3825 -466Q3841 -414 3852 -367Q3864 -319 3873 -287Z" fill="#603f83" style=""></path></g></g></g></svg>